# xmcd
#
# Track frame offsets: 
#        150
#        14026
#        28869
#        50356
#        70760
#        93987
#        107906
#        128713
#        170742
#        187435
#        202512
#        225529
#        249383
#
# Disc length: 3731 seconds
#
# Revision: 0
# Processed by: cddbd v1.5.1PL2 Copyright (c) Steve Scherf et al.
# Submitted via: ExactAudioCopy v0.95a5
#
DISCID=b20e910d
DTITLE=Barbra Streisand - The Concert CD2 and bonus
DYEAR=1900
DGENRE=Country
TTITLE0=Entr'acte
TTITLE1=The Way We Were
TTITLE2=You Don't Bring Me Flowers
TTITLE3=Lazy Afternoon
TTITLE4=Disney Medley
TTITLE5=Not While I'm Around
TTITLE6=Ordinary Miracles
TTITLE7=Yentl Medley
TTITLE8=Happy Days Are Here Again
TTITLE9=My Man
TTITLE10=For All We Know
TTITLE11=Somewhere
TTITLE12=Yentl Medley (JM Edit)
EXTD=
EXTT0=
EXTT1=
EXTT2=
EXTT3=
EXTT4=
EXTT5=
EXTT6=
EXTT7=
EXTT8=
EXTT9=
EXTT10=
EXTT11=
EXTT12=
PLAYORDER=
